<svg width="24" height="28" viewBox="0 0 24 28" fill="none" xmlns="http://www.w3.org/2000/svg">
<path d="M23.4138 13.4403C23.0263 13.8348 22.5137 14.029 22.0012 14.029C21.4887 14.029 20.9774 13.8333 20.5873 13.4419L14.0006 6.84618V26.0524C14.0006 27.1602 13.105 28 12.0568 28C11.0086 28 10.0004 27.1609 10.0004 26.0524V6.84618L3.4143 13.4403C2.63299 14.2231 1.36728 14.2231 0.585978 13.4403C-0.195326 12.6575 -0.195326 11.3894 0.585978 10.6067L10.5867 0.587084C11.368 -0.195695 12.6337 -0.195695 13.415 0.587084L23.4157 10.6067C24.1951 11.3926 24.1951 12.6575 23.4138 13.4403Z" fill="#00CCBD"/>
</svg>
