<svg width="19" height="26" viewBox="0 0 19 26" fill="none" xmlns="http://www.w3.org/2000/svg">
<path d="M9.5 0C4.25372 0 0 4.36543 0 9.74948C0 13.6802 1.33445 14.7781 8.52526 25.4756C8.99685 26.1748 10.0052 26.1748 10.4767 25.4756C17.6641 14.7765 19 13.6797 19 9.74948C19 4.36543 14.7448 0 9.5 0ZM9.5 13.7661C7.31648 13.7661 5.54167 11.9441 5.54167 9.70378C5.54167 7.46343 7.31797 5.64149 9.5 5.64149C11.682 5.64149 13.4583 7.46343 13.4583 9.70378C13.4583 11.9441 11.682 13.7661 9.5 13.7661Z" fill="#1A1A18"/>
</svg>
